# xmcd
#
# Track frame offsets: 
#        150
#        15730
#        36060
#        60152
#        84905
#        101422
#        126855
#        153045
#        176232
#        195990
#        217210
#        233755
#        253045
#        274082
#        286040
#        303240
#
# Disc length: 4277 seconds
#
# Revision: 4
# Processed by: cddbd v1.5.2PL0 Copyright (c) Steve Scherf et al.
# Submitted via: ExactAudioCopy v1.3
#
DISCID=ca10b310
DTITLE=European Jazz Trio - Best Of Classics [Disc 1]
DYEAR=2006
DGENRE=Jazz
TTITLE0=Mozart: Turkish March (Sonata No. 11 3rd Movement Rondo K.331)
TTITLE1=Mozart: Adagio (2nd Movement From Piano Concerto No.23 K.488)
TTITLE2=J.S.Bach: Ouverture No.3 BWV.1068
TTITLE3=Chopin: Prelude 'Raindrop' (OP.28-15)
TTITLE4=J.S.Bach: Allemande (French Suite No.5-1 BWV.816-1)
TTITLE5=J.S.Bach: Prelude (Well-Tempered Clavichord Vol.1-No.9)
TTITLE6=Grieg: Peer Gynt Suite No.1 - Morning (OP.46-1)
TTITLE7=Satie: Gymnopedie No.1
TTITLE8=Bizet: Habanera (Carmen)
TTITLE9=Ravel: Adagio Assai (2nd Movement From Piano Concerto In G)
TTITLE10=Brahms: Hungarian Dances No.5
TTITLE11=Chopin: Mazurka No.1 (OP.6-1)
TTITLE12=Albinoni: Adagio
TTITLE13=Paganini: 24 Caprice For Violin Solo OP.1-No.24
TTITLE14=Handel: Ombra Mai Fu (Serse 'Largo')
TTITLE15=J.S.Bach: Jesus, Joy Of Man's Desiring
EXTD=YEAR: 2006
EXTT0=
EXTT1=
EXTT2=
EXTT3=
EXTT4=
EXTT5=
EXTT6=
EXTT7=
EXTT8=
EXTT9=
EXTT10=
EXTT11=
EXTT12=
EXTT13=
EXTT14=
EXTT15=
PLAYORDER=
